<svg width="390" height="390" xmlns="http://www.w3.org/2000/svg" version="1.1">
 <!-- Generator: Adobe Illustrator 29.6.1, SVG Export Plug-In . SVG Version: 2.1.1 Build 9)  -->

 <g style="fill:#fff;">
  <title>Layer 1</title>
  <path id="svg_1" d="m1.5,145.97l0,95.81c7.97,-0.02 15.93,-0.04 23.9,-0.06l0,-95.7c-7.97,-0.02 -15.93,-0.04 -23.9,-0.06l0,0.01z"/>
  <path id="svg_2" d="m25.4,241.72l0,0.11l0.1,0l0,-0.11s-0.07,0 -0.1,0z"/>
  <path id="svg_3" d="m240.98,361.6l0.11,0l0,-0.1l-0.11,0s0,0.07 0,0.1z"/>
  <path id="svg_4" d="m145.22,385.5l95.81,0c-0.02,-7.97 -0.04,-15.93 -0.06,-23.9l-95.7,0c-0.02,7.97 -0.04,15.93 -0.06,23.9l0.01,0z"/>
  <path id="svg_5" d="m384.5,146.02l-23.65,0l0,95.7l23.65,0l0,-95.7z"/>
  <path id="svg_6" d="m360.85,146.02l0,-0.11l-0.1,0l0,0.11l0.1,0z"/>
  <path id="svg_7" d="m145.28,26.15l-0.11,0l0,0.1l0.11,0l0,-0.1z"/>
  <path id="svg_8" d="m240.97,2.5l-95.7,0l0,23.65l95.7,0l0,-23.65z"/>
  <path id="svg_9" d="m288.88,50.1l0,-23.85l-47.8,0l0,23.85l47.8,0z"/>
  <path id="svg_10" d="m241.08,26.25l0,-0.1l-0.11,0l0,0.1l0.11,0z"/>
  <path id="svg_11" d="m25.5,145.91l-0.1,0l0,0.11s0.07,0 0.1,0l0,-0.11z"/>
  <path id="svg_12" d="m49.35,98.12l-23.85,0l0,47.8l23.85,0l0,-47.8z"/>
  <path id="svg_13" d="m336.9,98.12l0,-0.11l-0.1,0l0,0.11l0.1,0z"/>
  <path id="svg_14" d="m360.75,145.91l0,-47.8l-23.85,0l0,47.8l23.85,0z"/>
  <path id="svg_15" d="m97.37,50.1l-0.11,0l0.11,0.1l0,-0.1z"/>
  <path id="svg_16" d="m145.17,26.25l-47.8,0l0,23.85l47.8,0l0,-23.85z"/>
  <path id="svg_17" d="m336.9,289.63l23.85,0l0,-47.8l-23.85,0l0,47.8z"/>
  <path id="svg_18" d="m360.75,241.83l0.1,0l0,-0.11l-0.1,0l0,0.11z"/>
  <path id="svg_19" d="m288.88,337.65l0.11,0l0,-0.1l-0.11,0l0,0.1z"/>
  <path id="svg_20" d="m241.08,361.5l47.8,0l0,-23.85l-47.8,0l0,23.85z"/>
  <path id="svg_21" d="m97.26,50.2l-23.84,0l0,23.85l23.84,0l0,-23.85z"/>
  <path id="svg_22" d="m97.26,50.1l0,0.1l0.11,0l-0.11,-0.1z"/>
  <path id="svg_23" d="m73.42,74.06l-0.11,0l0,0.1l0.11,0l0,-0.1z"/>
  <path id="svg_24" d="m288.99,50.2l0,-0.1l-0.11,0l0,0.1l0.11,0z"/>
  <path id="svg_25" d="m312.83,74.06l0,-23.85l-23.84,0l0,23.85l23.84,0z"/>
  <path id="svg_26" d="m73.31,74.16l-23.85,0l0,23.85l23.85,0l0,-23.85z"/>
  <path id="svg_27" d="m49.46,98.01l-0.1,0l0,0.11l0.1,0l0,-0.11z"/>
  <path id="svg_28" d="m336.8,98.01l0,-23.85l-23.85,0l0,23.85l23.85,0z"/>
  <path id="svg_29" d="m312.94,74.16l0,-0.1l-0.11,0l0,0.1l0.11,0z"/>
  <path id="svg_30" d="m336.8,289.74l0.1,0l0,-0.11l-0.1,0l0,0.11z"/>
  <path id="svg_31" d="m312.94,313.58l23.85,0l0,-23.84l-23.85,0l0,23.84z"/>
  <path id="svg_32" d="m312.84,313.69l0.1,0l0,-0.11l-0.1,0l0,0.11z"/>
  <path id="svg_33" d="m288.99,337.54l23.85,0l0,-23.85l-23.85,0l0,23.85z"/>
  <path id="svg_34" d="m49.35,289.63l0,0.11l0.1,0l0,-0.11l-0.1,0z"/>
  <path id="svg_35" d="m25.5,241.83l0,47.8l23.85,0l0,-47.8l-23.85,0z"/>
  <path id="svg_36" d="m97.37,337.65l0,23.85l47.8,0l0,-23.85l-47.8,0z"/>
  <path id="svg_37" d="m145.17,361.5l0,0.1l0.11,0s0,-0.07 0,-0.1l-0.11,0z"/>
  <path id="svg_38" d="m49.46,289.74l0,23.84l23.85,0l0,-23.84l-23.85,0z"/>
  <path id="svg_39" d="m73.31,313.58l0,0.11l0.1,0l0,-0.11l-0.1,0z"/>
  <path id="svg_40" d="m97.26,337.54l0,0.1l0.11,0l0,-0.1l-0.11,0z"/>
  <path id="svg_41" d="m73.41,313.69l0,23.85l23.85,0l0,-23.85l-23.85,0z"/>
  <path id="svg_42" d="m261.25,128.28l-26.92,0l0,26.92l26.92,0l0,-26.92z"/>
  <path id="svg_43" d="m145.15,265.94c0,7.88 0,15.75 0,23.45l95.68,0l0,-23.72c-30.44,0.02 -60.88,0.04 -91.32,0.08c-1.45,0 -2.9,0.12 -4.35,0.19l-0.01,0z"/>
  <path id="svg_44" d="m145.05,265.82l0,0.11s0.02,-0.03 0.05,-0.05c-0.03,0.03 -0.05,0.06 -0.05,0.06c0.03,0 0.07,0 0.1,0l0,-0.11s-0.07,0 -0.1,0l0,-0.01z"/>
  <path id="svg_45" d="m121.2,241.82l0.11,0l0,-0.11s-0.11,0.11 -0.11,0.11z"/>
  <path id="svg_46" d="m121.31,241.82c0,7.88 0,15.76 0,24c8.18,0 15.96,0 23.74,0c0,-7.97 0,-15.93 0,-24l-23.74,0z"/>
  <path id="svg_47" d="m240.94,265.56c7.97,0 15.93,0 24,0l0,-23.74c-7.88,0 -15.76,0 -24,0c0,8.18 0,15.96 0,23.74z"/>
  <path id="svg_48" d="m264.94,241.71l0,0.11l0.11,0s-0.11,-0.11 -0.11,-0.11z"/>
  <path id="svg_49" d="m240.88,265.61s-0.06,-0.05 -0.06,-0.05l0,0.1l0.12,0l0,-0.1l-0.11,0s0.03,0.02 0.05,0.05z"/>
  <path id="svg_50" d="m165.79,128.28l-26.92,0l0,26.92l26.92,0l0,-26.92z"/>
 </g>
</svg>